<svg width="222" height="46" viewBox="0 0 222 46" fill="none" xmlns="http://www.w3.org/2000/svg">
<path d="M0.848714 37V0.549997H16.2387V5.59H8.27371V15.445H15.0237V20.62H8.27371V37H0.848714ZM21.2699 37.45C20.2199 37.45 19.3349 37.18 18.6149 36.64C17.9249 36.1 17.4149 35.38 17.0849 34.48C16.7549 33.58 16.5899 32.59 16.5899 31.51V10.99H23.3849V30.52C23.3849 31.24 23.5049 31.795 23.7449 32.185C23.9849 32.545 24.4199 32.725 25.0499 32.725C25.4099 32.725 25.7849 32.635 26.1749 32.455C26.5949 32.245 27.0149 32.005 27.4349 31.735V10.99H34.2299V37H27.4349V34.57C26.5349 35.44 25.5599 36.145 24.5099 36.685C23.4899 37.195 22.4099 37.45 21.2699 37.45ZM36.2205 37V10.99H43.0155V13.6C43.9455 12.67 44.9205 11.935 45.9405 11.395C46.9905 10.825 48.1005 10.54 49.2705 10.54C50.3505 10.54 51.2205 10.81 51.8805 11.35C52.5705 11.89 53.0805 12.61 53.4105 13.51C53.7405 14.38 53.9055 15.37 53.9055 16.48V37H47.1555V17.605C47.1555 16.885 47.0355 16.345 46.7955 15.985C46.5855 15.625 46.1655 15.445 45.5355 15.445C45.1755 15.445 44.7705 15.55 44.3205 15.76C43.9005 15.94 43.4655 16.195 43.0155 16.525V37H36.2205ZM61.4279 37.45C59.4479 37.45 57.9179 36.745 56.8379 35.335C55.7879 33.925 55.2629 31.765 55.2629 28.855V19.315C55.2629 17.635 55.4729 16.135 55.8929 14.815C56.3429 13.495 57.0179 12.46 57.9179 11.71C58.8179 10.93 59.9729 10.54 61.3829 10.54C62.3129 10.54 63.1979 10.735 64.0379 11.125C64.8779 11.515 65.6429 12.01 66.3329 12.61V0.549997H73.1279V37H66.3329V35.065C65.5829 35.785 64.7879 36.37 63.9479 36.82C63.1379 37.24 62.2979 37.45 61.4279 37.45ZM64.1729 32.95C64.4729 32.95 64.8029 32.89 65.1629 32.77C65.5529 32.62 65.9429 32.425 66.3329 32.185V15.625C66.0029 15.445 65.6579 15.295 65.2979 15.175C64.9379 15.025 64.5779 14.95 64.2179 14.95C63.4379 14.95 62.8829 15.28 62.5529 15.94C62.2529 16.6 62.1029 17.395 62.1029 18.325V29.305C62.1029 29.995 62.1629 30.625 62.2829 31.195C62.4029 31.735 62.6129 32.17 62.9129 32.5C63.2129 32.8 63.6329 32.95 64.1729 32.95ZM75.1634 37V10.99H81.9584V37H75.1634ZM75.1184 6.715V1.63H81.9584V6.715H75.1184ZM83.931 37V10.99H90.726V13.6C91.656 12.67 92.631 11.935 93.651 11.395C94.701 10.825 95.811 10.54 96.981 10.54C98.061 10.54 98.931 10.81 99.591 11.35C100.281 11.89 100.791 12.61 101.121 13.51C101.451 14.38 101.616 15.37 101.616 16.48V37H94.866V17.605C94.866 16.885 94.746 16.345 94.506 15.985C94.296 15.625 93.876 15.445 93.246 15.445C92.886 15.445 92.481 15.55 92.031 15.76C91.611 15.94 91.176 16.195 90.726 16.525V37H83.931ZM111.568 45.82C109.708 45.82 108.058 45.625 106.618 45.235C105.208 44.875 104.113 44.305 103.333 43.525C102.553 42.745 102.163 41.77 102.163 40.6C102.163 39.7 102.358 38.905 102.748 38.215C103.168 37.525 103.738 36.925 104.458 36.415C105.178 35.905 105.988 35.485 106.888 35.155L109.588 35.605C109.228 35.905 108.898 36.205 108.598 36.505C108.298 36.805 108.043 37.12 107.833 37.45C107.653 37.78 107.563 38.17 107.563 38.62C107.563 39.31 107.923 39.82 108.643 40.15C109.393 40.48 110.638 40.645 112.378 40.645C113.878 40.645 115.033 40.495 115.843 40.195C116.653 39.925 117.058 39.4 117.058 38.62C117.058 38.2 116.953 37.855 116.743 37.585C116.533 37.315 116.173 37.105 115.663 36.955C115.183 36.775 114.508 36.64 113.638 36.55L107.338 35.785C106.018 35.605 104.968 35.14 104.188 34.39C103.438 33.61 103.063 32.665 103.063 31.555C103.063 30.505 103.378 29.545 104.008 28.675C104.668 27.805 105.523 26.935 106.573 26.065L108.913 27.46C108.613 27.79 108.343 28.135 108.103 28.495C107.893 28.825 107.788 29.185 107.788 29.575C107.788 29.935 107.968 30.22 108.328 30.43C108.688 30.64 109.303 30.79 110.173 30.88L115.978 31.6C118.138 31.87 119.728 32.59 120.748 33.76C121.798 34.93 122.323 36.46 122.323 38.35C122.323 39.97 121.963 41.335 121.243 42.445C120.523 43.555 119.368 44.395 117.778 44.965C116.218 45.535 114.148 45.82 111.568 45.82ZM111.973 28.675C109.993 28.675 108.328 28.315 106.978 27.595C105.658 26.845 104.653 25.795 103.963 24.445C103.303 23.095 102.973 21.49 102.973 19.63C102.973 17.68 103.318 16.03 104.008 14.68C104.698 13.33 105.703 12.31 107.023 11.62C108.373 10.9 110.023 10.54 111.973 10.54C113.833 10.54 115.393 10.915 116.653 11.665C117.943 12.415 118.918 13.465 119.578 14.815C120.238 16.165 120.568 17.785 120.568 19.675C120.568 21.535 120.253 23.14 119.623 24.49C118.993 25.81 118.048 26.845 116.788 27.595C115.528 28.315 113.923 28.675 111.973 28.675ZM111.973 24.49C112.423 24.49 112.783 24.4 113.053 24.22C113.353 24.04 113.578 23.755 113.728 23.365C113.878 22.975 113.983 22.48 114.043 21.88C114.103 21.25 114.133 20.5 114.133 19.63C114.133 18.76 114.103 18.025 114.043 17.425C113.983 16.795 113.878 16.285 113.728 15.895C113.578 15.475 113.353 15.175 113.053 14.995C112.783 14.815 112.423 14.725 111.973 14.725C111.523 14.725 111.148 14.815 110.848 14.995C110.548 15.175 110.308 15.46 110.128 15.85C109.978 16.24 109.873 16.75 109.813 17.38C109.753 18.01 109.723 18.76 109.723 19.63C109.723 20.47 109.753 21.205 109.813 21.835C109.873 22.435 109.978 22.93 110.128 23.32C110.278 23.71 110.503 24.01 110.803 24.22C111.103 24.4 111.493 24.49 111.973 24.49ZM119.128 15.13L117.688 13.195C118.108 12.415 118.663 11.755 119.353 11.215C120.073 10.675 120.988 10.15 122.098 9.64L123.718 13.06C123.418 13.15 122.953 13.33 122.323 13.6C121.723 13.84 121.108 14.11 120.478 14.41C119.878 14.68 119.428 14.92 119.128 15.13ZM123.145 37V0.549997H138.535V5.59H130.57V15.445H137.32V20.62H130.57V37H123.145ZM139.246 37V10.99H146.041V37H139.246ZM139.201 6.715V1.63H146.041V6.715H139.201ZM148.014 37V10.99H154.809V13.6C155.739 12.67 156.714 11.935 157.734 11.395C158.784 10.825 159.894 10.54 161.064 10.54C162.144 10.54 163.014 10.81 163.674 11.35C164.364 11.89 164.874 12.61 165.204 13.51C165.534 14.38 165.699 15.37 165.699 16.48V37H158.949V17.605C158.949 16.885 158.829 16.345 158.589 15.985C158.379 15.625 157.959 15.445 157.329 15.445C156.969 15.445 156.564 15.55 156.114 15.76C155.694 15.94 155.259 16.195 154.809 16.525V37H148.014ZM173.221 37.45C171.241 37.45 169.711 36.745 168.631 35.335C167.581 33.925 167.056 31.765 167.056 28.855V19.315C167.056 17.635 167.266 16.135 167.686 14.815C168.136 13.495 168.811 12.46 169.711 11.71C170.611 10.93 171.766 10.54 173.176 10.54C174.106 10.54 174.991 10.735 175.831 11.125C176.671 11.515 177.436 12.01 178.126 12.61V0.549997H184.921V37H178.126V35.065C177.376 35.785 176.581 36.37 175.741 36.82C174.931 37.24 174.091 37.45 173.221 37.45ZM175.966 32.95C176.266 32.95 176.596 32.89 176.956 32.77C177.346 32.62 177.736 32.425 178.126 32.185V15.625C177.796 15.445 177.451 15.295 177.091 15.175C176.731 15.025 176.371 14.95 176.011 14.95C175.231 14.95 174.676 15.28 174.346 15.94C174.046 16.6 173.896 17.395 173.896 18.325V29.305C173.896 29.995 173.956 30.625 174.076 31.195C174.196 31.735 174.406 32.17 174.706 32.5C175.006 32.8 175.426 32.95 175.966 32.95ZM195.057 37.45C193.137 37.45 191.532 37.105 190.242 36.415C188.952 35.695 187.977 34.66 187.317 33.31C186.657 31.93 186.327 30.28 186.327 28.36V19.63C186.327 17.65 186.657 16 187.317 14.68C187.977 13.33 188.967 12.31 190.287 11.62C191.607 10.9 193.197 10.54 195.057 10.54C197.037 10.54 198.642 10.9 199.872 11.62C201.102 12.34 202.002 13.39 202.572 14.77C203.172 16.15 203.472 17.83 203.472 19.81V24.355H193.032V29.395C193.032 30.145 193.107 30.76 193.257 31.24C193.437 31.72 193.677 32.065 193.977 32.275C194.277 32.455 194.652 32.545 195.102 32.545C195.522 32.545 195.882 32.455 196.182 32.275C196.512 32.065 196.752 31.75 196.902 31.33C197.052 30.91 197.127 30.355 197.127 29.665V27.19H203.427V29.35C203.427 31.99 202.707 34 201.267 35.38C199.827 36.76 197.757 37.45 195.057 37.45ZM193.032 21.115H197.127V18.55C197.127 17.8 197.052 17.2 196.902 16.75C196.752 16.27 196.512 15.94 196.182 15.76C195.882 15.55 195.492 15.445 195.012 15.445C194.562 15.445 194.187 15.55 193.887 15.76C193.617 15.97 193.407 16.345 193.257 16.885C193.107 17.395 193.032 18.13 193.032 19.09V21.115ZM204.955 37V10.99H211.75V15.175C212.62 13.645 213.475 12.52 214.315 11.8C215.185 11.05 216.205 10.675 217.375 10.675C217.585 10.675 217.765 10.69 217.915 10.72C218.095 10.72 218.26 10.75 218.41 10.81V17.65C218.08 17.5 217.705 17.38 217.285 17.29C216.865 17.17 216.43 17.11 215.98 17.11C215.14 17.11 214.375 17.335 213.685 17.785C212.995 18.205 212.35 18.82 211.75 19.63V37H204.955ZM214.552 37V30.385H221.032V37H214.552Z" fill="#0B251A"/>
</svg>
