<svg width="40" height="40" viewBox="0 0 40 40" fill="none" xmlns="http://www.w3.org/2000/svg">
<mask id="path-1-inside-1_0_504" fill="white">
<path d="M20.9881 38.7633L20.9698 38.7666L20.8515 38.825L20.8181 38.8316L20.7948 38.825L20.6765 38.7666C20.6587 38.7611 20.6454 38.7639 20.6365 38.775L20.6298 38.7916L20.6015 39.505L20.6098 39.5383L20.6265 39.56L20.7998 39.6833L20.8248 39.69L20.8448 39.6833L21.0181 39.56L21.0381 39.5333L21.0448 39.505L21.0165 38.7933C21.012 38.7755 21.0026 38.7655 20.9881 38.7633ZM21.4298 38.575L21.4081 38.5783L21.0998 38.7333L21.0831 38.75L21.0781 38.7683L21.1081 39.485L21.1165 39.505L21.1298 39.5166L21.4648 39.6716C21.4859 39.6772 21.502 39.6728 21.5131 39.6583L21.5198 39.635L21.4631 38.6116C21.4576 38.5916 21.4465 38.5794 21.4298 38.575ZM20.2381 38.5783C20.2308 38.5739 20.222 38.5724 20.2136 38.5743C20.2052 38.5761 20.1979 38.5812 20.1931 38.5883L20.1831 38.6116L20.1265 39.635C20.1276 39.655 20.137 39.6683 20.1548 39.675L20.1798 39.6716L20.5148 39.5166L20.5315 39.5033L20.5381 39.485L20.5665 38.7683L20.5615 38.7483L20.5448 38.7316L20.2381 38.5783Z"/>
</mask>
<path d="M20.9881 38.7633L21.2922 36.7866L20.9605 36.7355L20.6302 36.7956L20.9881 38.7633ZM20.9698 38.7666L20.6119 36.7989L20.3365 36.849L20.0855 36.9728L20.9698 38.7666ZM20.8515 38.825L21.2437 40.7861L21.5007 40.7347L21.7358 40.6189L20.8515 38.825ZM20.8181 38.8316L20.2687 40.7547L20.7349 40.8879L21.2103 40.7928L20.8181 38.8316ZM20.7948 38.825L19.9105 40.6189L20.0721 40.6985L20.2454 40.748L20.7948 38.825ZM20.6765 38.7666L21.5608 36.9728L21.4214 36.904L21.273 36.8577L20.6765 38.7666ZM20.6365 38.775L19.0747 37.5256L18.8896 37.757L18.7795 38.0323L20.6365 38.775ZM20.6298 38.7916L18.7728 38.0489L18.645 38.3684L18.6314 38.7123L20.6298 38.7916ZM20.6015 39.505L18.603 39.4256L18.5917 39.712L18.6612 39.99L20.6015 39.505ZM20.6098 39.5383L18.6695 40.0234L18.7705 40.4275L19.0245 40.7577L20.6098 39.5383ZM20.6265 39.56L19.0412 40.7794L19.2234 41.0163L19.467 41.1896L20.6265 39.56ZM20.7998 39.6833L19.6403 41.3129L19.935 41.5226L20.2845 41.6158L20.7998 39.6833ZM20.8248 39.69L20.3095 41.6225L20.8886 41.7769L21.4572 41.5874L20.8248 39.69ZM20.8448 39.6833L21.4772 41.5807L21.7608 41.4862L22.0043 41.3129L20.8448 39.6833ZM21.0181 39.56L22.1776 41.1896L22.4313 41.009L22.6182 40.7599L21.0181 39.56ZM21.0381 39.5333L22.6382 40.7333L22.8892 40.3986L22.985 39.9914L21.0381 39.5333ZM21.0448 39.505L22.9916 39.963L23.0541 39.6977L23.0432 39.4254L21.0448 39.505ZM21.0165 38.7933L23.0149 38.7137L23.0067 38.508L22.9567 38.3082L21.0165 38.7933ZM21.4298 38.575L21.9451 36.6425L21.5401 36.5345L21.1258 36.5982L21.4298 38.575ZM21.4081 38.5783L21.1042 36.6015L20.792 36.6495L20.5098 36.7914L21.4081 38.5783ZM21.0998 38.7333L20.2015 36.9464L19.9135 37.0912L19.6856 37.3191L21.0998 38.7333ZM21.0831 38.75L19.6689 37.3358L19.2933 37.7114L19.1536 38.2238L21.0831 38.75ZM21.0781 38.7683L19.1486 38.2422L19.0669 38.5417L19.0799 38.852L21.0781 38.7683ZM21.1081 39.485L19.1099 39.5686L19.1248 39.925L19.262 40.2543L21.1081 39.485ZM21.1165 39.505L19.2703 40.2743L19.4493 40.7038L19.7995 41.0102L21.1165 39.505ZM21.1298 39.5166L19.8128 41.0218L20.0291 41.2111L20.29 41.3318L21.1298 39.5166ZM21.4648 39.6716L20.625 41.4868L20.7851 41.5609L20.9558 41.6058L21.4648 39.6716ZM21.5131 39.6583L23.0984 40.8777L23.3313 40.575L23.4362 40.2077L21.5131 39.6583ZM21.5198 39.635L23.4429 40.1844L23.5354 39.8606L23.5167 39.5244L21.5198 39.635ZM21.4631 38.6116L23.4601 38.5011L23.4481 38.2849L23.3902 38.0764L21.4631 38.6116ZM20.2381 38.5783L19.2016 40.2887L19.271 40.3308L19.3437 40.3672L20.2381 38.5783ZM20.1931 38.5883L18.5297 37.4779L18.4274 37.6311L18.3549 37.8004L20.1931 38.5883ZM20.1831 38.6116L18.3449 37.8237L18.2057 38.1484L18.1862 38.5011L20.1831 38.6116ZM20.1265 39.635L18.1295 39.5244L18.1234 39.6352L18.1295 39.7459L20.1265 39.635ZM20.1548 39.675L19.4526 41.5476L19.9221 41.7237L20.4192 41.6574L20.1548 39.675ZM20.1798 39.6716L20.4442 41.6541L20.7446 41.614L21.0196 41.4868L20.1798 39.6716ZM20.5148 39.5166L21.3546 41.3318L21.5747 41.2299L21.7641 41.0784L20.5148 39.5166ZM20.5315 39.5033L21.7808 41.0651L22.2192 40.7144L22.4111 40.1868L20.5315 39.5033ZM20.5381 39.485L22.4177 40.1684L22.5243 39.8755L22.5366 39.564L20.5381 39.485ZM20.5665 38.7683L22.5649 38.8473L22.5762 38.5611L22.5067 38.2832L20.5665 38.7683ZM20.5615 38.7483L22.5017 38.2632L22.3674 37.7258L21.9757 37.3341L20.5615 38.7483ZM20.5448 38.7316L21.959 37.3174L21.7295 37.0879L21.4392 36.9428L20.5448 38.7316ZM20.9881 38.7633L20.6302 36.7956L20.6119 36.7989L20.9698 38.7666L21.3277 40.7344L21.346 40.731L20.9881 38.7633ZM20.9698 38.7666L20.0855 36.9728L19.9672 37.0311L20.8515 38.825L21.7358 40.6189L21.8541 40.5605L20.9698 38.7666ZM20.8515 38.825L20.4592 36.8638L20.4259 36.8705L20.8181 38.8316L21.2103 40.7928L21.2437 40.7861L20.8515 38.825ZM20.8181 38.8316L21.3675 36.9086L21.3442 36.9019L20.7948 38.825L20.2454 40.748L20.2687 40.7547L20.8181 38.8316ZM20.7948 38.825L21.6791 37.0311L21.5608 36.9728L20.6765 38.7666L19.7922 40.5605L19.9105 40.6189L20.7948 38.825ZM20.6765 38.7666L21.273 36.8577C21.0532 36.789 20.6858 36.7148 20.2453 36.8066C19.7617 36.9073 19.3557 37.1744 19.0747 37.5256L20.6365 38.775L22.1982 40.0244C21.9262 40.3644 21.5312 40.6246 21.0609 40.7225C20.6338 40.8115 20.282 40.7387 20.0799 40.6756L20.6765 38.7666ZM20.6365 38.775L18.7795 38.0323L18.7728 38.0489L20.6298 38.7916L22.4868 39.5344L22.4934 39.5177L20.6365 38.775ZM20.6298 38.7916L18.6314 38.7123L18.603 39.4256L20.6015 39.505L22.5999 39.5844L22.6282 38.871L20.6298 38.7916ZM20.6015 39.505L18.6612 39.99L18.6695 40.0234L20.6098 39.5383L22.5501 39.0532L22.5417 39.0199L20.6015 39.505ZM20.6098 39.5383L19.0245 40.7577L19.0412 40.7794L20.6265 39.56L22.2117 38.3406L22.1951 38.3189L20.6098 39.5383ZM20.6265 39.56L19.467 41.1896L19.6403 41.3129L20.7998 39.6833L21.9593 38.0537L21.786 37.9304L20.6265 39.56ZM20.7998 39.6833L20.2845 41.6158L20.3095 41.6225L20.8248 39.69L21.3401 37.7575L21.3151 37.7508L20.7998 39.6833ZM20.8248 39.69L21.4572 41.5874L21.4772 41.5807L20.8448 39.6833L20.2124 37.7859L20.1924 37.7926L20.8248 39.69ZM20.8448 39.6833L22.0043 41.3129L22.1776 41.1896L21.0181 39.56L19.8586 37.9304L19.6853 38.0537L20.8448 39.6833ZM21.0181 39.56L22.6182 40.7599L22.6382 40.7333L21.0381 39.5333L19.4381 38.3333L19.4181 38.36L21.0181 39.56ZM21.0381 39.5333L22.985 39.9914L22.9916 39.963L21.0448 39.505L19.098 39.0469L19.0913 39.0753L21.0381 39.5333ZM21.0448 39.505L23.0432 39.4254L23.0149 38.7137L21.0165 38.7933L19.018 38.8729L19.0464 39.5845L21.0448 39.505ZM21.0165 38.7933L22.9567 38.3082C22.898 38.0732 22.7659 37.7231 22.4601 37.3993C22.13 37.0498 21.7098 36.8508 21.2922 36.7866L20.9881 38.7633L20.684 40.7401C20.2809 40.678 19.8726 40.4852 19.552 40.1457C19.2556 39.8319 19.1305 39.4956 19.0762 39.2784L21.0165 38.7933ZM21.4298 38.575L21.1258 36.5982L21.1042 36.6015L21.4081 38.5783L21.7121 40.5551L21.7338 40.5517L21.4298 38.575ZM21.4081 38.5783L20.5098 36.7914L20.2015 36.9464L21.0998 38.7333L21.9981 40.5202L22.3064 40.3652L21.4081 38.5783ZM21.0998 38.7333L19.6856 37.3191L19.6689 37.3358L21.0831 38.75L22.4973 40.1642L22.514 40.1475L21.0998 38.7333ZM21.0831 38.75L19.1536 38.2238L19.1486 38.2422L21.0781 38.7683L23.0077 39.2944L23.0127 39.2761L21.0831 38.75ZM21.0781 38.7683L19.0799 38.852L19.1099 39.5686L21.1081 39.485L23.1064 39.4013L23.0764 38.6847L21.0781 38.7683ZM21.1081 39.485L19.262 40.2543L19.2703 40.2743L21.1165 39.505L22.9626 38.7357L22.9543 38.7157L21.1081 39.485ZM21.1165 39.505L19.7995 41.0102L19.8128 41.0218L21.1298 39.5166L22.4468 38.0115L22.4334 37.9998L21.1165 39.505ZM21.1298 39.5166L20.29 41.3318L20.625 41.4868L21.4648 39.6716L22.3046 37.8565L21.9696 37.7015L21.1298 39.5166ZM21.4648 39.6716L20.9558 41.6058C21.2059 41.6716 21.5873 41.7211 22.0245 41.6005C22.4897 41.4722 22.8533 41.1964 23.0984 40.8777L21.5131 39.6583L19.9279 38.4389C20.1619 38.1347 20.5118 37.8683 20.9609 37.7445C21.3821 37.6283 21.7448 37.6772 21.9738 37.7375L21.4648 39.6716ZM21.5131 39.6583L23.4362 40.2077L23.4429 40.1844L21.5198 39.635L19.5967 39.0856L19.5901 39.1089L21.5131 39.6583ZM21.5198 39.635L23.5167 39.5244L23.4601 38.5011L21.4631 38.6116L19.4662 38.7222L19.5229 39.7456L21.5198 39.635ZM21.4631 38.6116L23.3902 38.0764C23.2402 37.5365 22.7959 36.8694 21.9451 36.6425L21.4298 38.575L20.9145 40.5074C20.5689 40.4153 20.2355 40.224 19.9708 39.9329C19.719 39.6559 19.5961 39.3628 19.5361 39.1469L21.4631 38.6116ZM20.2381 38.5783L21.2747 36.8679C20.8264 36.5962 20.2909 36.5083 19.7798 36.6219L20.2136 38.5743L20.6475 40.5267C20.1531 40.6365 19.6351 40.5515 19.2016 40.2887L20.2381 38.5783ZM20.2136 38.5743L19.7798 36.6219C19.2685 36.7355 18.8206 37.0421 18.5297 37.4779L20.1931 38.5883L21.8566 39.6987C21.5752 40.1203 21.142 40.4168 20.6475 40.5267L20.2136 38.5743ZM20.1931 38.5883L18.3549 37.8004L18.3449 37.8237L20.1831 38.6116L22.0214 39.3995L22.0314 39.3762L20.1931 38.5883ZM20.1831 38.6116L18.1862 38.5011L18.1295 39.5244L20.1265 39.635L22.1234 39.7456L22.1801 38.7222L20.1831 38.6116ZM20.1265 39.635L18.1295 39.7459C18.1463 40.0466 18.2356 40.4395 18.5023 40.816C18.774 41.1996 19.1313 41.4272 19.4526 41.5476L20.1548 39.675L20.857 37.8023C21.1605 37.9161 21.5042 38.1337 21.7664 38.5039C22.0237 38.8672 22.1078 39.2433 22.1234 39.524L20.1265 39.635ZM20.1548 39.675L20.4192 41.6574L20.4442 41.6541L20.1798 39.6716L19.9154 37.6892L19.8904 37.6925L20.1548 39.675ZM20.1798 39.6716L21.0196 41.4868L21.3546 41.3318L20.5148 39.5166L19.675 37.7015L19.34 37.8565L20.1798 39.6716ZM20.5148 39.5166L21.7641 41.0784L21.7808 41.0651L20.5315 39.5033L19.2821 37.9415L19.2655 37.9548L20.5148 39.5166ZM20.5315 39.5033L22.4111 40.1868L22.4177 40.1684L20.5381 39.485L18.6585 38.8015L18.6519 38.8199L20.5315 39.5033ZM20.5381 39.485L22.5366 39.564L22.5649 38.8473L20.5665 38.7683L18.568 38.6893L18.5397 39.406L20.5381 39.485ZM20.5665 38.7683L22.5067 38.2832L22.5017 38.2632L20.5615 38.7483L18.6212 39.2335L18.6262 39.2535L20.5665 38.7683ZM20.5615 38.7483L21.9757 37.3341L21.959 37.3174L20.5448 38.7316L19.1306 40.1459L19.1473 40.1625L20.5615 38.7483ZM20.5448 38.7316L21.4392 36.9428L21.1326 36.7895L20.2381 38.5783L19.3437 40.3672L19.6504 40.5205L20.5448 38.7316Z" fill="#39988B" mask="url(#path-1-inside-1_0_504)"/>
<path d="M11.6665 4.33325H28.3335C29.3281 4.33333 30.2843 4.70392 31.0181 5.36841L31.1616 5.50513C31.9117 6.25526 32.3335 7.27246 32.3335 8.33325V35.0461C32.3335 36.2284 31.0372 36.9316 30.0552 36.3303L29.9614 36.2678L20.5815 29.5676L19.9995 29.1526L19.4185 29.5676L10.0386 36.2678C9.04579 36.9777 7.6665 36.2683 7.6665 35.0481V8.33325L7.67139 8.13501C7.71714 7.21218 8.08147 6.33357 8.70166 5.64868L8.83838 5.50513C9.54167 4.80184 10.4796 4.38716 11.4683 4.33813L11.6665 4.33325Z" stroke="#39988B" stroke-width="2"/>
</svg>
