<svg width="20" height="20" viewBox="0 0 20 20" fill="none" xmlns="http://www.w3.org/2000/svg">
<path d="M18 12.9901V14.2281C18 14.9707 17.6613 15.6056 17.1911 16.1046C16.7262 16.5991 16.0951 17.0023 15.3849 17.3216C13.9609 17.9602 12.0569 18.3333 10 18.3333C7.94311 18.3333 6.03911 17.9611 4.61511 17.3216C3.90489 17.0023 3.27378 16.5991 2.80889 16.1046C2.37778 15.6485 2.05778 15.0756 2.00711 14.4114L2 14.2281V12.9901C2.41304 13.2322 2.8557 13.4435 3.328 13.6241C5.13244 14.3093 7.49244 14.6915 10 14.6915C12.5076 14.6915 14.8676 14.3093 16.672 13.6241C17.0264 13.4891 17.3639 13.3362 17.6844 13.1653L18 12.9901ZM10 1C12.0569 1 13.9609 1.37221 15.3849 2.01172C16.0951 2.33102 16.7262 2.73425 17.1911 3.2287C17.6222 3.68484 17.9422 4.25775 17.9929 4.92189L18 5.10526V5.78765C17.41 6.25557 16.7542 6.62898 16.0551 6.89516C14.4951 7.48814 12.3538 7.85032 10 7.85032C7.64711 7.85032 5.50578 7.48814 3.94489 6.89516C3.34399 6.66604 2.77476 6.35752 2.25156 5.9774L2 5.78765V5.10526C2 4.36267 2.33867 3.72772 2.80889 3.2287C3.27378 2.73425 3.90489 2.33102 4.61511 2.01172C6.03911 1.37312 7.94311 1 10 1Z" fill="#C4E1DD"/>
<path d="M2 7.66675C2.41304 7.93047 2.8557 8.16072 3.328 8.35752C5.13244 9.10395 7.49244 9.52039 10 9.52039C12.5076 9.52039 14.8676 9.10395 16.672 8.35752C17.1309 8.1685 17.5751 7.93746 18 7.66675V10.7528C17.41 11.2626 16.7542 11.6695 16.0551 11.9595C14.4951 12.6055 12.3538 13.0001 10 13.0001C7.64711 13.0001 5.50578 12.6055 3.94489 11.9595C3.24579 11.6695 2.59004 11.2626 2 10.7528V7.66675Z" fill="#39988B"/>
</svg>
