<svg width="15" height="14" viewBox="0 0 15 14" fill="none" xmlns="http://www.w3.org/2000/svg">
<path d="M6.55909 8.85086H2.54167C2.45884 8.85086 2.38942 8.82305 2.33342 8.76744C2.27742 8.71183 2.24962 8.64241 2.25 8.55919C2.25039 8.47597 2.2782 8.40655 2.33342 8.35094C2.38864 8.29533 2.45806 8.26752 2.54167 8.26752H6.55909L4.96075 6.66919C4.90592 6.61475 4.87675 6.54824 4.87325 6.46969C4.86937 6.39191 4.89853 6.32075 4.96075 6.25619C5.02492 6.19202 5.09414 6.15994 5.16842 6.15994C5.2427 6.15994 5.31211 6.19202 5.37667 6.25619L7.3495 8.22961C7.40045 8.28016 7.43623 8.33208 7.45684 8.38536C7.47745 8.43863 7.48775 8.49658 7.48775 8.55919C7.48775 8.6218 7.47745 8.67975 7.45684 8.73302C7.43623 8.7863 7.40045 8.83822 7.3495 8.88877L5.37317 10.8657C5.31639 10.9225 5.2495 10.9522 5.1725 10.9549C5.09512 10.9577 5.02434 10.9267 4.96017 10.8622C4.89795 10.798 4.86645 10.7292 4.86567 10.6557C4.86489 10.5822 4.89639 10.5136 4.96017 10.4498L6.55909 8.85086ZM8.44092 5.72127L10.0393 7.31961C10.0941 7.37405 10.1233 7.44036 10.1268 7.51852C10.1303 7.59669 10.1011 7.66805 10.0393 7.73261C9.97548 7.79677 9.90625 7.82886 9.83159 7.82886C9.75692 7.82886 9.6877 7.79677 9.62392 7.73261L7.6505 5.75919C7.59956 5.70863 7.56378 5.65672 7.54317 5.60344C7.52256 5.55016 7.51225 5.49222 7.51225 5.42961C7.51225 5.367 7.52256 5.30905 7.54317 5.25577C7.56378 5.2025 7.59956 5.15038 7.6505 5.09944L9.62684 3.12311C9.68362 3.06633 9.7507 3.03658 9.82809 3.03386C9.90548 3.03113 9.97606 3.06205 10.0398 3.12661C10.1021 3.19077 10.1336 3.25941 10.1343 3.33252C10.1355 3.40602 10.104 3.47486 10.0398 3.53902L8.4415 5.13736H12.4583C12.5416 5.13736 12.611 5.16536 12.6666 5.22136C12.7222 5.27736 12.75 5.34677 12.75 5.42961C12.75 5.51244 12.7222 5.58186 12.6666 5.63786C12.611 5.69386 12.5416 5.72166 12.4583 5.72127H8.44092Z" fill="#FAB900" stroke="#FAB900" stroke-width="0.5"/>
</svg>
