<svg width="15" height="14" viewBox="0 0 15 14" fill="none" xmlns="http://www.w3.org/2000/svg">
<g clip-path="url(#clip0_0_4488)">
<path d="M10.7917 11.2917L12.25 12.75M2.33337 4H11.6667M2.33337 7.5H4.66671M2.33337 11H4.66671M6.41671 9.25C6.41671 9.86884 6.66254 10.4623 7.10013 10.8999C7.53771 11.3375 8.1312 11.5833 8.75004 11.5833C9.36888 11.5833 9.96237 11.3375 10.4 10.8999C10.8375 10.4623 11.0834 9.86884 11.0834 9.25C11.0834 8.63116 10.8375 8.03767 10.4 7.60008C9.96237 7.1625 9.36888 6.91667 8.75004 6.91667C8.1312 6.91667 7.53771 7.1625 7.10013 7.60008C6.66254 8.03767 6.41671 8.63116 6.41671 9.25Z" stroke="#ED4C49" stroke-linecap="round" stroke-linejoin="round"/>
</g>
<defs>
<clipPath id="clip0_0_4488">
<rect width="14" height="14" fill="white" transform="translate(0.5)"/>
</clipPath>
</defs>
</svg>
