<svg width="15" height="14" viewBox="0 0 15 14" fill="none" xmlns="http://www.w3.org/2000/svg">
<path d="M6.33333 2.91667L7.5 1.75M5.16667 9.33333L9.83333 4.66667M7.5 12.25L8.66667 11.0833M10.125 11.0833C10.5118 11.0833 10.8827 10.9297 11.1562 10.6562C11.4297 10.3827 11.5833 10.0118 11.5833 9.625C11.5833 9.23823 11.4297 8.86729 11.1562 8.5938C10.8827 8.32031 10.5118 8.16667 10.125 8.16667C9.73823 8.16667 9.36729 8.32031 9.0938 8.5938C8.82031 8.86729 8.66667 9.23823 8.66667 9.625C8.66667 10.0118 8.82031 10.3827 9.0938 10.6562C9.36729 10.9297 9.73823 11.0833 10.125 11.0833ZM4.875 5.83333C5.26177 5.83333 5.63271 5.67969 5.9062 5.4062C6.17969 5.13271 6.33333 4.76177 6.33333 4.375C6.33333 3.98823 6.17969 3.61729 5.9062 3.3438C5.63271 3.07031 5.26177 2.91667 4.875 2.91667C4.48823 2.91667 4.11729 3.07031 3.8438 3.3438C3.57031 3.61729 3.41667 3.98823 3.41667 4.375C3.41667 4.76177 3.57031 5.13271 3.8438 5.4062C4.11729 5.67969 4.48823 5.83333 4.875 5.83333ZM3.70833 12.25C4.09511 12.25 4.46604 12.0964 4.73953 11.8229C5.01302 11.5494 5.16667 11.1784 5.16667 10.7917C5.16667 10.4049 5.01302 10.034 4.73953 9.76047C4.46604 9.48698 4.09511 9.33333 3.70833 9.33333C3.32156 9.33333 2.95063 9.48698 2.67714 9.76047C2.40365 10.034 2.25 10.4049 2.25 10.7917C2.25 11.1784 2.40365 11.5494 2.67714 11.8229C2.95063 12.0964 3.32156 12.25 3.70833 12.25ZM11.2917 4.66667C11.6784 4.66667 12.0494 4.51302 12.3229 4.23953C12.5964 3.96604 12.75 3.59511 12.75 3.20833C12.75 2.82156 12.5964 2.45063 12.3229 2.17714C12.0494 1.90365 11.6784 1.75 11.2917 1.75C10.9049 1.75 10.534 1.90365 10.2605 2.17714C9.98698 2.45063 9.83333 2.82156 9.83333 3.20833C9.83333 3.59511 9.98698 3.96604 10.2605 4.23953C10.534 4.51302 10.9049 4.66667 11.2917 4.66667Z" stroke="#02CC5F" stroke-linecap="round" stroke-linejoin="round"/>
</svg>
