<svg width="17" height="16" viewBox="0 0 17 16" fill="none" xmlns="http://www.w3.org/2000/svg">
<path d="M4.42334 13.6667V13H7.75667V11H7.42334C6.59312 11 5.88556 10.7076 5.30067 10.1227C4.71578 9.5378 4.42334 8.83025 4.42334 8.00002C4.42334 7.38402 4.6009 6.82336 4.95601 6.31802C5.31112 5.81314 5.77956 5.44558 6.36134 5.21536C6.38178 4.76069 6.5769 4.40825 6.94667 4.15802C7.31645 3.9078 7.70845 3.85514 8.12267 4.00002L7.67934 2.78669L8.31267 2.55336L8.07934 1.92802L8.85934 1.64136L9.08467 2.27469L9.66667 2.06669L11.32 6.58002L10.7387 6.81336L10.972 7.44669L10.192 7.73336L9.96667 7.10002L9.33334 7.35936L8.90801 6.13069C8.77556 6.32047 8.60512 6.47136 8.39667 6.58336C8.18823 6.69536 7.96467 6.74869 7.72601 6.74336C7.44734 6.73847 7.19601 6.65714 6.97201 6.49936C6.74801 6.34158 6.57956 6.13847 6.46667 5.89002C6.04712 6.07625 5.71267 6.3578 5.46334 6.73469C5.21401 7.11158 5.08956 7.53336 5.09001 8.00002C5.09001 8.64802 5.31667 9.19914 5.77001 9.65336C6.22378 10.1067 6.7749 10.3334 7.42334 10.3334H12.4233V11H8.57667V13H12.5767V13.6667H4.42334ZM9.70267 6.57202L10.5593 6.23602L9.32334 2.82069L8.43334 3.13069L9.70267 6.57202ZM7.75601 6.15402C7.98801 6.15402 8.1829 6.07536 8.34067 5.91802C8.49845 5.76114 8.57734 5.56647 8.57734 5.33402C8.57734 5.10158 8.49867 4.90669 8.34134 4.74936C8.18401 4.59202 7.98934 4.51314 7.75734 4.51269C7.52534 4.51225 7.33045 4.59091 7.17267 4.74869C7.0149 4.90558 6.93601 5.10025 6.93601 5.33269C6.93601 5.56514 7.01445 5.76002 7.17134 5.91736C7.32823 6.07469 7.52356 6.15358 7.75601 6.15402Z" fill="#E88B00" stroke="#E88B00" stroke-width="0.4"/>
</svg>
