<svg width="15" height="14" viewBox="0 0 15 14" fill="none" xmlns="http://www.w3.org/2000/svg">
<path d="M4.00004 7.58325H1.66671C1.31671 7.58325 1.08337 7.81659 1.08337 8.16659V12.8333C1.08337 13.1833 1.31671 13.4166 1.66671 13.4166H4.00004C4.35004 13.4166 4.58337 13.1833 4.58337 12.8333V8.16659C4.58337 7.81659 4.35004 7.58325 4.00004 7.58325ZM13.3334 5.24992H11C10.65 5.24992 10.4167 5.48325 10.4167 5.83325V12.8333C10.4167 13.1833 10.65 13.4166 11 13.4166H13.3334C13.6834 13.4166 13.9167 13.1833 13.9167 12.8333V5.83325C13.9167 5.48325 13.6834 5.24992 13.3334 5.24992ZM8.66671 0.583252H6.33337C5.98337 0.583252 5.75004 0.816585 5.75004 1.16659V12.8333C5.75004 13.1833 5.98337 13.4166 6.33337 13.4166H8.66671C9.01671 13.4166 9.25004 13.1833 9.25004 12.8333V1.16659C9.25004 0.816585 9.01671 0.583252 8.66671 0.583252Z" fill="#7999FF"/>
</svg>
