<svg width="34" height="34" viewBox="0 0 34 34" fill="none" xmlns="http://www.w3.org/2000/svg">
<path d="M25.0601 15.9376H5.3125C5.03071 15.9376 4.76046 16.0496 4.5612 16.2488C4.36194 16.4481 4.25 16.7183 4.25 17.0001C4.25 17.2819 4.36194 17.5522 4.5612 17.7514C4.76046 17.9507 5.03071 18.0626 5.3125 18.0626H25.0601L17.3102 25.8104C17.1107 26.0099 16.9987 26.2805 16.9987 26.5626C16.9987 26.8448 17.1107 27.1154 17.3102 27.3149C17.5098 27.5144 17.7804 27.6265 18.0625 27.6265C18.3446 27.6265 18.6152 27.5144 18.8148 27.3149L28.3773 17.7524C28.4762 17.6537 28.5547 17.5364 28.6083 17.4073C28.6618 17.2783 28.6894 17.1399 28.6894 17.0001C28.6894 16.8604 28.6618 16.722 28.6083 16.5929C28.5547 16.4638 28.4762 16.3466 28.3773 16.2479L18.8148 6.68537C18.6152 6.48586 18.3446 6.37378 18.0625 6.37378C17.7804 6.37378 17.5098 6.48586 17.3102 6.68537C17.1107 6.88488 16.9987 7.15547 16.9987 7.43762C16.9987 7.71977 17.1107 7.99036 17.3102 8.18987L25.0601 15.9376Z" fill="white" stroke="white"/>
</svg>
