<svg width="64" height="60" viewBox="0 0 64 60" fill="none" xmlns="http://www.w3.org/2000/svg">
<path d="M61.9086 39.4851C62.4217 39.3696 62.8789 39.0798 63.2023 38.6651C63.5258 38.2504 63.6955 37.7365 63.6827 37.2107V35.3003C63.6827 33.4907 62.9638 31.7552 61.6842 30.4756C60.4046 29.196 58.6691 28.4771 56.8595 28.4771H48.0804V32.7188C48.1006 32.8682 48.0912 33.02 48.0526 33.1657C48.0141 33.3114 47.9473 33.4481 47.8559 33.5679C47.7646 33.6878 47.6505 33.7885 47.5203 33.8642C47.39 33.94 47.2461 33.9894 47.0968 34.0096C46.7952 34.0503 46.4898 33.9695 46.2477 33.785C46.0056 33.6006 45.8468 33.3275 45.8061 33.0259C45.7265 32.8098 45.8061 28.4771 45.8061 28.4771H7.23268C6.30281 28.4212 5.37135 28.5563 4.49569 28.8741C3.62003 29.1919 2.81871 29.6856 2.14111 30.3249C1.46351 30.9641 0.923991 31.7353 0.555784 32.591C0.187577 33.4467 -0.00151244 34.3687 0.000165938 35.3003V37.188C-0.00643687 37.7348 0.184203 38.2657 0.53716 38.6834C0.890117 39.1011 1.38176 39.3776 1.92201 39.4624C3.05748 39.6466 4.09033 40.2289 4.83575 41.105C5.58116 41.9811 5.99049 43.0939 5.99049 44.2442C5.99049 45.3946 5.58116 46.5073 4.83575 47.3835C4.09033 48.2596 3.05748 48.8419 1.92201 49.0261C1.38176 49.1108 0.890117 49.3874 0.53716 49.8051C0.184203 50.2228 -0.00643687 50.7537 0.000165938 51.3005V53.1768C0.000165938 54.9865 0.719029 56.7219 1.99861 58.0015C3.2782 59.2811 5.01368 60 6.82329 60H45.8061C45.8061 60 45.7378 55.6445 45.8061 55.4512C45.8808 55.2237 46.0256 55.0256 46.2195 54.8852C46.4135 54.7447 46.6469 54.6691 46.8864 54.6691C47.1259 54.6691 47.3593 54.7447 47.5533 54.8852C47.7472 55.0256 47.8919 55.2237 47.9667 55.4512C48.1146 55.7924 48.0236 60 48.0236 60H56.8595C58.6691 60 60.4046 59.2811 61.6842 58.0015C62.9638 56.7219 63.6827 54.9865 63.6827 53.1768V51.1413C63.6798 50.6272 63.5029 50.1292 63.1807 49.7286C62.8586 49.3279 62.4102 49.0482 61.9086 48.9351C60.8449 48.6831 59.8973 48.0795 59.2192 47.222C58.5411 46.3646 58.1722 45.3033 58.1722 44.2101C58.1722 43.1169 58.5411 42.0557 59.2192 41.1982C59.8973 40.3407 60.8449 39.7371 61.9086 39.4851ZM48.0804 50.1064C48.0804 50.408 47.9606 50.6973 47.7474 50.9106C47.5341 51.1238 47.2449 51.2436 46.9433 51.2436C46.6417 51.2436 46.3524 51.1238 46.1391 50.9106C45.9259 50.6973 45.8061 50.408 45.8061 50.1064V47.036C45.8061 46.7344 45.9259 46.4452 46.1391 46.2319C46.3524 46.0187 46.6417 45.8988 46.9433 45.8988C47.2449 45.8988 47.5341 46.0187 47.7474 46.2319C47.9606 46.4452 48.0804 46.7344 48.0804 47.036V50.1064ZM48.0804 41.407C48.0804 41.7086 47.9606 41.9978 47.7474 42.2111C47.5341 42.4243 47.2449 42.5441 46.9433 42.5441C46.6417 42.5441 46.3524 42.4243 46.1391 42.2111C45.9259 41.9978 45.8061 41.7086 45.8061 41.407V38.3138C45.8061 38.0122 45.9259 37.723 46.1391 37.5097C46.3524 37.2964 46.6417 37.1766 46.9433 37.1766C47.2449 37.1766 47.5341 37.2964 47.7474 37.5097C47.9606 37.723 48.0804 38.0122 48.0804 38.3138V41.407Z" fill="#E87A95"/>
<path opacity="0.3" d="M42.258 26.2028C41.7122 25.6456 40.6091 24.5539 40.0633 24.008C39.8491 23.7954 39.7282 23.5064 39.7272 23.2046C39.7261 22.9029 39.845 22.613 40.0576 22.3989C40.2702 22.1848 40.5592 22.0639 40.861 22.0628C41.1627 22.0617 41.4526 22.1806 41.6667 22.3932L44.2481 24.9746L49.138 20.0847C50.2123 19.0044 50.8153 17.5428 50.8153 16.0193C50.8153 14.4957 50.2123 13.0341 49.138 11.9538L48.1259 10.9304C47.7623 10.587 47.2956 10.373 46.7981 10.3217C46.3006 10.2703 45.8001 10.3843 45.3739 10.6461C44.6634 11.0722 43.831 11.2489 43.0086 11.1481C42.1863 11.0473 41.4211 10.6747 40.8346 10.0895C40.2481 9.50433 39.8739 8.74003 39.7712 7.91791C39.6685 7.09578 39.8434 6.26292 40.268 5.55147C40.5514 5.10809 40.6723 4.58013 40.6101 4.05757C40.5479 3.53502 40.3064 3.05021 39.9268 2.68576L38.9147 1.67366C37.831 0.601423 36.3681 0 34.8436 0C33.3191 0 31.8561 0.601423 30.7725 1.67366L25.8712 6.56357L28.4298 9.19047C28.6425 9.40461 28.7613 9.69444 28.7603 9.99621C28.7592 10.298 28.6383 10.587 28.4242 10.7996C28.21 11.0122 27.9202 11.1311 27.6184 11.13C27.3167 11.1289 27.0277 11.008 26.815 10.7939L24.2336 8.21249L6.24332 26.2255L42.258 26.2028ZM35.0597 17.401C35.1654 17.2944 35.2911 17.2098 35.4297 17.152C35.5683 17.0943 35.7169 17.0646 35.8671 17.0646C36.0172 17.0646 36.1658 17.0943 36.3044 17.152C36.443 17.2098 36.5687 17.2944 36.6745 17.401L38.4485 19.1863C38.6603 19.3994 38.7792 19.6876 38.7792 19.9881C38.7792 20.2885 38.6603 20.5767 38.4485 20.7898C38.2354 21.0016 37.9472 21.1205 37.6468 21.1205C37.3463 21.1205 37.0581 21.0016 36.845 20.7898L35.0597 19.0044C34.8479 18.7913 34.729 18.5031 34.729 18.2027C34.729 17.9023 34.8479 17.614 35.0597 17.401ZM30.0674 12.4087C30.1731 12.3021 30.2989 12.2175 30.4375 12.1598C30.576 12.1021 30.7247 12.0723 30.8748 12.0723C31.0249 12.0723 31.1736 12.1021 31.3121 12.1598C31.4507 12.2175 31.5765 12.3021 31.6822 12.4087L33.4562 14.1827C33.6704 14.3969 33.7907 14.6873 33.7907 14.9901C33.7907 15.293 33.6704 15.5834 33.4562 15.7975C33.2421 16.0117 32.9516 16.132 32.6488 16.132C32.346 16.132 32.0555 16.0117 31.8414 15.7975L30.0674 14.0576C29.9556 13.9514 29.8665 13.8235 29.8057 13.6818C29.7448 13.54 29.7134 13.3874 29.7134 13.2332C29.7134 13.0789 29.7448 12.9263 29.8057 12.7846C29.8665 12.6428 29.9556 12.5149 30.0674 12.4087Z" fill="#E87A95"/>
</svg>
