<svg width="70" height="60" viewBox="0 0 70 60" fill="none" xmlns="http://www.w3.org/2000/svg">
<path opacity="0.3" d="M59.8953 32.3931H54.4818C55.0335 33.9196 55.335 35.567 55.335 37.284V57.9578C55.335 58.6737 55.2117 59.3609 54.9873 59.9999H63.9371C67.2803 59.9999 70 57.2516 70 53.8736V42.6034C70.0002 36.9735 65.4671 32.3931 59.8953 32.3931Z" fill="#6F5BEB"/>
<path opacity="0.3" d="M14.6652 37.284C14.6652 35.5669 14.9666 33.9196 15.5184 32.3931H10.1049C4.53306 32.3931 0 36.9735 0 42.6036V53.8738C0 57.2518 2.71975 60.0001 6.06294 60.0001H15.0128C14.7885 59.3607 14.6652 58.6737 14.6652 57.9578V37.284Z" fill="#6F5BEB"/>
<path d="M41.1881 27.0737H28.812C23.2401 27.0737 18.7071 31.6542 18.7071 37.2842V57.958C18.7071 59.0857 19.6119 60.0001 20.7281 60.0001H49.272C50.3882 60.0001 51.293 59.0859 51.293 57.958V37.2842C51.293 31.6542 46.7599 27.0737 41.1881 27.0737Z" fill="#6F5BEB"/>
<path d="M35.0001 0C28.2992 0 22.8477 5.5085 22.8477 12.2795C22.8477 16.8722 25.3563 20.8834 29.0611 22.9893C30.8184 23.9881 32.8443 24.5589 35.0001 24.5589C37.1558 24.5589 39.1818 23.9881 40.939 22.9893C44.6439 20.8834 47.1525 16.8721 47.1525 12.2795C47.1525 5.50864 41.7009 0 35.0001 0Z" fill="#6F5BEB"/>
<path opacity="0.3" d="M13.6607 11.4453C8.64923 11.4453 4.57227 15.5649 4.57227 20.6287C4.57227 25.6925 8.64923 29.812 13.6607 29.812C14.9319 29.812 16.1424 29.546 17.242 29.0677C19.1432 28.2406 20.7108 26.7765 21.6809 24.9426C22.3617 23.6555 22.7491 22.1871 22.7491 20.6287C22.7491 15.565 18.6721 11.4453 13.6607 11.4453Z" fill="#6F5BEB"/>
<path opacity="0.3" d="M56.3394 11.4453C51.328 11.4453 47.251 15.5649 47.251 20.6287C47.251 22.1873 47.6384 23.6556 48.3192 24.9426C49.2892 26.7767 50.8569 28.2408 52.7581 29.0677C53.8577 29.546 55.0682 29.812 56.3394 29.812C61.3509 29.812 65.4278 25.6925 65.4278 20.6287C65.4278 15.5649 61.3509 11.4453 56.3394 11.4453Z" fill="#6F5BEB"/>
</svg>
