<svg width="24" height="24" viewBox="0 0 24 24" fill="none" xmlns="http://www.w3.org/2000/svg">
<path fill-rule="evenodd" clip-rule="evenodd" d="M15.2873 18.693C15.4244 18.6362 15.5415 18.54 15.6239 18.4167C15.7064 18.2933 15.7503 18.1483 15.7503 18V5.99995C15.7502 5.85171 15.7061 5.70683 15.6237 5.58362C15.5413 5.4604 15.4242 5.36438 15.2872 5.30766C15.1503 5.25095 14.9996 5.2361 14.8542 5.26499C14.7088 5.29387 14.5752 5.36519 14.4703 5.46995L8.47032 11.47C8.32987 11.6106 8.25098 11.8012 8.25098 12C8.25098 12.1987 8.32987 12.3893 8.47032 12.53L14.4703 18.53C14.5751 18.6348 14.7087 18.7063 14.8541 18.7353C14.9995 18.7643 15.1503 18.7496 15.2873 18.693Z" fill="#39988B"/>
</svg>
