<svg width="20" height="20" viewBox="0 0 20 20" fill="none" xmlns="http://www.w3.org/2000/svg">
<path d="M14.1665 17.0832H5.83317C3.33317 17.0832 1.6665 15.8332 1.6665 12.9165V7.08317C1.6665 4.1665 3.33317 2.9165 5.83317 2.9165H14.1665C16.6665 2.9165 18.3332 4.1665 18.3332 7.08317V12.9165C18.3332 15.8332 16.6665 17.0832 14.1665 17.0832Z" fill="#C4E1DD"/>
<path d="M10 12.5C11.3807 12.5 12.5 11.3807 12.5 10C12.5 8.61925 11.3807 7.5 10 7.5C8.61925 7.5 7.5 8.61925 7.5 10C7.5 11.3807 8.61925 12.5 10 12.5Z" fill="#39988B"/>
<path d="M15.8335 6.45825H13.3335C12.9918 6.45825 12.7085 6.17492 12.7085 5.83325C12.7085 5.49159 12.9918 5.20825 13.3335 5.20825H15.8335C16.1752 5.20825 16.4585 5.49159 16.4585 5.83325C16.4585 6.17492 16.1752 6.45825 15.8335 6.45825Z" fill="#39988B"/>
<path d="M6.6665 14.7915H4.1665C3.82484 14.7915 3.5415 14.5082 3.5415 14.1665C3.5415 13.8248 3.82484 13.5415 4.1665 13.5415H6.6665C7.00817 13.5415 7.2915 13.8248 7.2915 14.1665C7.2915 14.5082 7.00817 14.7915 6.6665 14.7915Z" fill="#39988B"/>
</svg>
