<svg width="15" height="14" viewBox="0 0 15 14" fill="none" xmlns="http://www.w3.org/2000/svg">
<path fill-rule="evenodd" clip-rule="evenodd" d="M7.5 1.75C6.10761 1.75 4.77226 2.30312 3.78769 3.28769C2.80312 4.27226 2.25 5.60761 2.25 7C2.25 8.39239 2.80312 9.72774 3.78769 10.7123C4.77226 11.6969 6.10761 12.25 7.5 12.25H10.125C10.9405 12.25 11.3483 12.25 11.6697 12.117C11.8821 12.0291 12.075 11.9001 12.2376 11.7376C12.4001 11.575 12.5291 11.3821 12.617 11.1697C12.75 10.8483 12.75 10.4405 12.75 9.625V7C12.75 5.60761 12.1969 4.27226 11.2123 3.28769C10.2277 2.30312 8.89239 1.75 7.5 1.75ZM5.16667 6.41667C5.16667 6.26196 5.22812 6.11358 5.33752 6.00419C5.44692 5.89479 5.59529 5.83333 5.75 5.83333H9.25C9.40471 5.83333 9.55308 5.89479 9.66248 6.00419C9.77187 6.11358 9.83333 6.26196 9.83333 6.41667C9.83333 6.57138 9.77187 6.71975 9.66248 6.82915C9.55308 6.93854 9.40471 7 9.25 7H5.75C5.59529 7 5.44692 6.93854 5.33752 6.82915C5.22812 6.71975 5.16667 6.57138 5.16667 6.41667ZM6.91667 8.75C6.91667 8.59529 6.97812 8.44692 7.08752 8.33752C7.19692 8.22812 7.34529 8.16667 7.5 8.16667H9.25C9.40471 8.16667 9.55308 8.22812 9.66248 8.33752C9.77187 8.44692 9.83333 8.59529 9.83333 8.75C9.83333 8.90471 9.77187 9.05308 9.66248 9.16248C9.55308 9.27187 9.40471 9.33333 9.25 9.33333H7.5C7.34529 9.33333 7.19692 9.27187 7.08752 9.16248C6.97812 9.05308 6.91667 8.90471 6.91667 8.75Z" fill="#6012DF"/>
</svg>
