<svg width="15" height="14" viewBox="0 0 15 14" fill="none" xmlns="http://www.w3.org/2000/svg">
<path d="M11.7 4.1999C11.7 5.7469 9.81985 6.9999 7.50005 6.9999C5.18025 6.9999 3.30005 5.7469 3.30005 4.1999C3.30005 2.6529 5.18025 1.3999 7.50005 1.3999C9.81985 1.3999 11.7 2.6529 11.7 4.1999ZM11.525 6.197C10.6395 7.1049 9.16605 7.6999 7.50005 7.6999C5.83405 7.6999 4.36055 7.1049 3.47505 6.197C3.36165 6.4511 3.30005 6.7199 3.30005 6.9999C3.30005 8.5469 5.18025 9.7999 7.50005 9.7999C9.81985 9.7999 11.7 8.5469 11.7 6.9999C11.6991 6.72291 11.6395 6.44926 11.525 6.197ZM11.525 8.997C10.6395 9.9049 9.16605 10.4999 7.50005 10.4999C5.83405 10.4999 4.36055 9.9049 3.47505 8.997C3.36165 9.2511 3.30005 9.5199 3.30005 9.7999C3.30005 11.3469 5.18025 12.5999 7.50005 12.5999C9.81985 12.5999 11.7 11.3469 11.7 9.7999C11.6991 9.52291 11.6395 9.24926 11.525 8.997Z" fill="#00823C"/>
</svg>
