<svg width="78" height="30" viewBox="0 0 78 30" fill="none" xmlns="http://www.w3.org/2000/svg">
<g opacity="0.5" clip-path="url(#clip0_8_289)">
<path d="M35.7582 26.4286H37.7894V18.6928H35.7582V26.4286ZM35.7582 17.4865H37.7894V15.6468H35.7582V17.4865Z" fill="white"/>
<path d="M39.0983 28.9619H41.1295V25.554H41.1595C41.5926 26.2175 42.2946 26.6548 43.3699 26.6548C45.3415 26.6548 46.6857 25.0715 46.6857 22.5683C46.6857 20.1555 45.3863 18.4818 43.355 18.4818C42.3095 18.4818 41.5926 18.9794 41.0997 19.6579H41.0549V18.6929H39.0983V28.9619ZM42.9368 24.9508C41.727 24.9508 41.0848 24.031 41.0848 22.6286C41.0848 21.2413 41.5926 20.1405 42.8621 20.1405C44.1167 20.1405 44.6245 21.1659 44.6245 22.6286C44.6245 24.0913 43.9674 24.9508 42.9368 24.9508Z" fill="white"/>
<path d="M50.7377 26.6548C52.6494 26.6548 53.9637 25.7198 53.9637 24.1667C53.9637 22.3571 52.5449 21.9953 51.2604 21.7239C50.17 21.4977 49.1544 21.4373 49.1544 20.7738C49.1544 20.2159 49.6772 19.9143 50.4688 19.9143C51.3351 19.9143 51.8578 20.2159 51.9474 21.0453H53.7846C53.6352 19.4921 52.515 18.4818 50.4987 18.4818C48.7512 18.4818 47.377 19.281 47.377 20.9547C47.377 22.6437 48.7213 23.0207 50.0954 23.2921C51.1409 23.5032 52.1117 23.5786 52.1117 24.3175C52.1117 24.8604 51.6039 25.2072 50.7077 25.2072C49.7967 25.2072 49.1693 24.8151 49.035 23.9254H47.153C47.2725 25.5691 48.5122 26.6548 50.7377 26.6548Z" fill="white"/>
<path d="M61.6759 26.4286V18.6929H59.6446V23.1563C59.6446 24.1817 59.0621 24.9056 58.1062 24.9056C57.24 24.9056 56.8367 24.4079 56.8367 23.5031V18.6929H54.8203V23.85C54.8203 25.5389 55.7762 26.6397 57.4789 26.6397C58.5543 26.6397 59.1517 26.2325 59.6745 25.5238H59.7193V26.4286H61.6759Z" fill="white"/>
<path d="M62.9897 26.4286H65.0211V21.9349C65.0211 20.9095 65.5737 20.2461 66.3952 20.2461C67.1419 20.2461 67.5751 20.6984 67.5751 21.573V26.4286H69.6064V21.9349C69.6064 20.9095 70.1291 20.2461 70.9804 20.2461C71.7272 20.2461 72.1604 20.6984 72.1604 21.573V26.4286H74.1917V21.2262C74.1917 19.5373 73.2805 18.4818 71.6675 18.4818C70.6967 18.4818 69.8901 18.9945 69.3674 19.8389H69.3375C68.9641 19.0246 68.1874 18.4818 67.2166 18.4818C66.1562 18.4818 65.4094 19.0246 64.9912 19.7334H64.9464V18.6929H62.9897V26.4286Z" fill="white"/>
<path d="M35.788 13.179H37.8193V2.39722H35.788V13.179Z" fill="white"/>
<path d="M42.786 13.4052C45.1609 13.4052 46.7889 11.6258 46.7889 9.3187C46.7889 7.01155 45.1609 5.23218 42.786 5.23218C40.4113 5.23218 38.7832 7.01155 38.7832 9.3187C38.7832 11.6258 40.4113 13.4052 42.786 13.4052ZM42.786 11.837C41.5314 11.837 40.8444 10.8266 40.8444 9.3187C40.8444 7.81075 41.5314 6.78536 42.786 6.78536C44.0257 6.78536 44.7277 7.81075 44.7277 9.3187C44.7277 10.8266 44.0257 11.837 42.786 11.837Z" fill="white"/>
<path d="M51.1086 15.818C52.2437 15.818 53.2295 15.5465 53.8717 14.9433C54.4392 14.4155 54.7828 13.6766 54.7828 12.5909V5.44329H52.8262V6.25758H52.7963C52.3333 5.60916 51.6313 5.23218 50.6754 5.23218C48.7338 5.23218 47.3597 6.70996 47.3597 9.01712C47.3597 11.3544 49.0325 12.7115 50.7352 12.7115C51.706 12.7115 52.2885 12.3195 52.7366 11.8068H52.7814V12.6512C52.7814 13.7068 52.2288 14.2647 51.0787 14.2647C50.1377 14.2647 49.7046 13.8878 49.5403 13.4052H47.524C47.7331 14.9132 49.0176 15.818 51.1086 15.818ZM51.0787 11.0679C50.0332 11.0679 49.3461 10.2989 49.3461 8.98697C49.3461 7.69015 50.0332 6.87583 51.0638 6.87583C52.2885 6.87583 52.8859 7.84089 52.8859 8.9719C52.8859 10.1179 52.3632 11.0679 51.0787 11.0679Z" fill="white"/>
<path d="M59.7201 13.4052C62.0949 13.4052 63.723 11.6258 63.723 9.3187C63.723 7.01155 62.0949 5.23218 59.7201 5.23218C57.3454 5.23218 55.7173 7.01155 55.7173 9.3187C55.7173 11.6258 57.3454 13.4052 59.7201 13.4052ZM59.7201 11.837C58.4655 11.837 57.7785 10.8266 57.7785 9.3187C57.7785 7.81075 58.4655 6.78536 59.7201 6.78536C60.9598 6.78536 61.6618 7.81075 61.6618 9.3187C61.6618 10.8266 60.9598 11.837 59.7201 11.837Z" fill="white"/>
<path d="M65.5036 10.2235H74.2857V8.45917H65.5036V10.2235Z" fill="white"/>
<path d="M74.9298 17.3788C74.9298 17.0318 75.2083 16.7504 75.5523 16.7504H76.7966C77.1405 16.7504 77.4191 17.0318 77.4191 17.3788C77.4191 17.7257 77.1405 18.0071 76.7966 18.0071H75.5523C75.2083 18.0071 74.9298 17.7257 74.9298 17.3788Z" fill="white"/>
<path fill-rule="evenodd" clip-rule="evenodd" d="M15.2446 0C23.45 0 30.1018 6.71572 30.1018 15C30.1018 23.2843 23.45 30 15.2446 30C7.03925 30 0.387482 23.2843 0.387482 15C0.387482 6.71572 7.03925 0 15.2446 0ZM14.7076 1.12244C13.0127 1.36327 11.3988 2.73831 10.1459 5.03805C9.78254 5.70512 9.45464 6.4421 9.16887 7.23783C10.8724 6.80563 12.7437 6.55082 14.7076 6.5114V1.12244ZM7.91321 7.5981C8.26852 6.47219 8.70324 5.4363 9.20489 4.51549C9.82592 3.37544 10.563 2.39096 11.3934 1.63483C6.87767 2.95892 3.31822 6.55259 2.00674 11.1118C2.75567 10.2733 3.73078 9.5292 4.85997 8.9022C5.77201 8.39573 6.79802 7.95683 7.91321 7.5981ZM7.55634 8.86583C7.12829 10.5857 6.87591 12.475 6.83687 14.4578H1.49923C1.73777 12.7465 3.09972 11.1171 5.37755 9.8523C6.03827 9.4854 6.76823 9.15435 7.55634 8.86583ZM7.91113 14.4578C7.95548 12.294 8.26399 10.2626 8.77448 8.46765C10.5523 7.95225 12.5645 7.6407 14.7076 7.59593V9.9381C13.9081 12.0047 12.2774 13.6509 10.2304 14.4578H7.91113ZM6.83687 15.5422H1.49923C1.73777 17.2535 3.09972 18.8828 5.37755 20.1477C6.03827 20.5146 6.76823 20.8456 7.55634 21.1342C7.12829 19.4143 6.87591 17.525 6.83687 15.5422ZM8.77448 21.5324C8.26399 19.7374 7.95548 17.706 7.91113 15.5422H10.2304C12.2774 16.3491 13.9081 17.9953 14.7076 20.0619V22.4041C12.5645 22.3593 10.5523 22.0478 8.77448 21.5324ZM7.91321 22.4019C6.79802 22.0432 5.77201 21.6043 4.85997 21.0978C3.73078 20.4708 2.75567 19.7267 2.00674 18.8882C3.31822 23.4474 6.87767 27.0411 11.3934 28.3652C10.563 27.609 9.82592 26.6246 9.20489 25.4845C8.70324 24.5637 8.26852 23.5278 7.91321 22.4019ZM14.7076 28.8775C13.0127 28.6367 11.3988 27.2617 10.1459 24.962C9.78254 24.2949 9.45464 23.5579 9.16887 22.7622C10.8724 23.1943 12.7437 23.4492 14.7076 23.4886V28.8775ZM19.0958 28.3652C19.9263 27.609 20.6633 26.6246 21.2844 25.4845C21.786 24.5637 22.2207 23.5278 22.576 22.4019C23.6912 22.0432 24.7172 21.6043 25.6293 21.0978C26.7585 20.4708 27.7336 19.7267 28.4825 18.8882C27.171 23.4474 23.6116 27.0411 19.0958 28.3652ZM21.3204 22.7622C21.0346 23.5579 20.7067 24.2949 20.3433 24.962C19.0905 27.2617 17.4766 28.6367 15.7816 28.8775V23.4886C17.7455 23.4492 19.6169 23.1943 21.3204 22.7622ZM22.9329 21.1342C23.721 20.8456 24.451 20.5146 25.1117 20.1477C27.3895 18.8828 28.7515 17.2535 28.99 15.5422H23.6523C23.6133 17.525 23.3609 19.4143 22.9329 21.1342ZM22.5782 15.5422C22.5338 17.706 22.2252 19.7374 21.7148 21.5324C19.937 22.0478 17.9248 22.3593 15.7816 22.4041V20.0636C16.5809 17.9963 18.212 16.3493 20.2595 15.5422H22.5782ZM23.6523 14.4578H28.99C28.7515 12.7465 27.3895 11.1171 25.1117 9.8523C24.451 9.4854 23.721 9.15435 22.9329 8.86583C23.3609 10.5857 23.6133 12.475 23.6523 14.4578ZM21.7148 8.46765C22.2252 10.2626 22.5338 12.294 22.5782 14.4578H20.2595C18.212 13.6507 16.5809 12.0037 15.7816 9.93637V7.59593C17.9248 7.6407 19.937 7.95225 21.7148 8.46765ZM22.576 7.5981C23.6912 7.95683 24.7172 8.39573 25.6293 8.9022C26.7585 9.5292 27.7336 10.2733 28.4825 11.1118C27.171 6.55259 23.6116 2.95892 19.0958 1.63483C19.9263 2.39096 20.6633 3.37544 21.2844 4.51549C21.786 5.4363 22.2207 6.47219 22.576 7.5981ZM15.7816 1.12244C17.4766 1.36327 19.0905 2.73831 20.3433 5.03805C20.7067 5.70513 21.0346 6.4421 21.3204 7.23783C19.6169 6.80563 17.7455 6.55082 15.7816 6.5114V1.12244Z" fill="white"/>
</g>
<defs>
<clipPath id="clip0_8_289">
<rect width="78" height="30" fill="white"/>
</clipPath>
</defs>
</svg>
