<svg width="116" height="30" viewBox="0 0 116 30" fill="none" xmlns="http://www.w3.org/2000/svg">
<g opacity="0.5">
<path d="M21.4992 12.6564C23.7323 12.6564 24.2348 13.63 24.2348 14.8443C24.2348 16.1314 23.627 17.0536 21.5084 17.0536C19.4033 17.0536 18.7949 16.185 18.7949 14.8443C18.7949 13.525 19.4581 12.6564 21.4992 12.6564Z" fill="white"/>
<path d="M44.8372 12.6564C47.0704 12.6564 47.5728 13.63 47.5728 14.8443C47.5728 16.1314 46.9643 17.0536 44.8464 17.0536C42.7421 17.0536 42.1329 16.185 42.1329 14.8443C42.1329 13.525 42.7962 12.6564 44.8372 12.6564Z" fill="white"/>
<path fill-rule="evenodd" clip-rule="evenodd" d="M1.72702 27.5V2.17645H114.58V27.5H1.72702ZM55.5126 26.0715H113.157V3.60502H55.5126V26.0715ZM21.5098 19.2093C25.4745 19.2093 27.1412 17.4929 27.1412 14.8122C27.1412 12.0879 25.2638 10.4686 21.5098 10.4686C17.8135 10.4686 15.8678 12.2272 15.8678 14.8122C15.8678 17.7293 17.9088 19.2093 21.5098 19.2093ZM7.72574 10.6615V19.0807H15.7276V16.8386H10.6208V10.6615H7.72574ZM36.0966 19.0807L36.0219 18.265C35.0534 18.9587 33.8746 19.2926 32.6878 19.2093C30.9037 19.2093 29.4177 18.6729 28.5844 17.59C28.0347 16.7995 27.7572 15.8505 27.7937 14.8872C27.7625 13.9441 28.0497 13.0181 28.6086 12.2593C29.4519 11.2086 30.9805 10.5115 33.2564 10.5115C35.8746 10.5115 37.4132 11.3157 38.075 12.6672C38.2171 12.9855 38.3006 13.3269 38.3213 13.675H35.5515C35.4817 13.4635 35.3518 13.277 35.1779 13.1386C34.6261 12.7715 33.9673 12.6017 33.3077 12.6565C32.9207 12.6094 32.5282 12.6452 32.1561 12.7617C31.7841 12.8782 31.4408 13.0727 31.1492 13.3322C30.818 13.7872 30.6625 14.3473 30.7115 14.9086C30.6731 15.4441 30.8161 15.977 31.1172 16.4207C31.4114 16.696 31.7613 16.9044 32.1429 17.0321C32.5245 17.1597 32.929 17.2037 33.329 17.1607C34.1234 17.2256 34.9122 16.9797 35.5302 16.4743C35.6629 16.3077 35.7544 16.1119 35.797 15.9029H32.8166V14.0936H38.3939V19.0807H36.0966ZM44.8479 19.2093C48.8118 19.2093 50.4792 17.4929 50.4792 14.8122C50.4792 12.0879 48.5989 10.4686 44.8479 10.4686C41.1515 10.4686 39.2059 12.2272 39.2059 14.8122C39.2059 17.7293 41.2469 19.2093 44.8479 19.2093Z" fill="white"/>
<path d="M60.389 19.0486V10.6293H62.4528V19.0486H60.389Z" fill="white"/>
<path d="M73.0508 15.5307C72.5277 16.2172 71.6275 16.5307 70.3586 16.5386C70.091 16.5386 66.5434 16.5279 66.5434 16.5279V19.0486H64.5237V10.6293H70.3593C70.827 10.5797 71.3001 10.6294 71.7471 10.7754C72.1947 10.9214 72.606 11.1602 72.9554 11.4764C73.4166 12.0794 73.6408 12.8313 73.586 13.5893C73.6329 14.2787 73.4444 14.9637 73.0508 15.5307ZM71.3948 12.7857C71.1813 12.4643 70.7208 12.2857 69.9416 12.2857H66.5327V14.8486H69.9195C70.7529 14.8486 71.192 14.6772 71.3948 14.3443C71.5151 14.1098 71.567 13.8457 71.5442 13.5829C71.562 13.3087 71.5108 13.0345 71.3948 12.7857Z" fill="white"/>
<path d="M79.5376 19.1772C75.7331 19.1772 74.5688 17.7486 74.5688 16.335H76.7272C76.7272 17.0322 77.678 17.5579 79.6336 17.5579C81.5779 17.5579 82.091 17.2143 82.091 16.6564C82.091 16.0343 81.7067 15.8414 79.9005 15.6379C79.5447 15.6057 78.5761 15.4879 78.2125 15.4343C75.6505 15.1443 74.6642 14.3829 74.6642 13.0207C74.6642 11.5836 76.1074 10.5007 79.238 10.5007C82.6361 10.5007 83.9399 11.8414 83.9399 13.2357H81.8049C81.8049 12.5279 81.0036 12.12 79.112 12.12C77.167 12.12 76.7507 12.3879 76.7507 12.9136C76.7507 13.4607 77.1777 13.6322 79.2415 13.8786C79.7119 13.9436 80.7588 14.0614 81.047 14.0929C83.2275 14.3179 84.2103 15.1114 84.2103 16.5164C84.2068 18.19 82.7108 19.1772 79.5376 19.1772Z" fill="white"/>
<path d="M90.2879 19.1664C87.4996 19.1664 85.6827 18.0614 85.6827 15.7378V10.6293H87.7231V15.7664C87.7231 16.8286 88.5891 17.5357 90.3733 17.5357C91.9866 17.5357 92.9487 16.8714 92.9487 15.7664V10.6293H94.9684V15.9286C94.9684 18.0407 93.2797 19.1664 90.2879 19.1664Z" fill="white"/>
<path d="M106.028 19.0486V13.4286L103.409 19.0486H101.422L98.879 13.4286V19.0486H96.9575V10.6293H99.5607L102.446 17.0428L105.395 10.6293H107.957V19.0486H106.028Z" fill="white"/>
</g>
</svg>
