<svg width="124" height="30" viewBox="0 0 124 30" fill="none" xmlns="http://www.w3.org/2000/svg">
<g opacity="0.5" clip-path="url(#clip0_8_334)">
<path d="M37.8274 20.5888H46.5453V17.9546H40.9259V8.03265H37.8274V20.5888Z" fill="white"/>
<path d="M51.7103 18.8327C50.4674 18.8327 49.8197 17.7439 49.8197 16.1107C49.8197 14.4775 50.4674 13.3712 51.7103 13.3712C52.9532 13.3712 53.6185 14.4775 53.6185 16.1107C53.6185 17.7439 52.9532 18.8327 51.7103 18.8327ZM51.7278 20.8697C54.6163 20.8697 56.5069 18.8151 56.5069 16.1107C56.5069 13.4063 54.6163 11.3517 51.7278 11.3517C48.8569 11.3517 46.9312 13.4063 46.9312 16.1107C46.9312 18.8151 48.8569 20.8697 51.7278 20.8697Z" fill="white"/>
<path d="M61.5067 23.6971C62.8372 23.6971 64.0101 23.3986 64.7978 22.6961C65.5156 22.0464 65.9882 21.0629 65.9882 19.7108V11.5976H63.2573V12.5634H63.2223C62.6971 11.8083 61.8919 11.3342 60.7015 11.3342C58.4782 11.3342 56.9377 13.1956 56.9377 15.8298C56.9377 18.5869 58.8108 20.0971 60.824 20.0971C61.9094 20.0971 62.5921 19.6581 63.1173 19.061H63.1873V19.9566C63.1873 21.0454 62.6796 21.6776 61.4717 21.6776C60.5264 21.6776 60.0537 21.2737 59.8962 20.7995H57.1302C57.4103 22.6786 59.0384 23.6971 61.5067 23.6971ZM61.4892 17.9722C60.4214 17.9722 59.7211 17.0942 59.7211 15.742C59.7211 14.3722 60.4214 13.4942 61.4892 13.4942C62.6796 13.4942 63.3098 14.5127 63.3098 15.7244C63.3098 16.9888 62.7321 17.9722 61.4892 17.9722Z" fill="white"/>
<path d="M71.6034 18.8327C70.3605 18.8327 69.7128 17.7439 69.7128 16.1107C69.7128 14.4775 70.3605 13.3712 71.6034 13.3712C72.8464 13.3712 73.5116 14.4775 73.5116 16.1107C73.5116 17.7439 72.8464 18.8327 71.6034 18.8327ZM71.621 20.8697C74.5094 20.8697 76.4001 18.8151 76.4001 16.1107C76.4001 13.4063 74.5094 11.3517 71.621 11.3517C68.75 11.3517 66.8243 13.4063 66.8243 16.1107C66.8243 18.8151 68.75 20.8697 71.621 20.8697Z" fill="white"/>
<path d="M77.233 20.5888H80.0865V11.5975H77.233V20.5888ZM77.233 10.3507H80.0865V8.03265H77.233V10.3507Z" fill="white"/>
<path d="M81.325 23.5566H84.1785V19.6581H84.2135C84.7737 20.4132 85.5964 20.8698 86.7518 20.8698C89.0976 20.8698 90.6556 19.0083 90.6556 16.0932C90.6556 13.3888 89.2027 11.3342 86.8219 11.3342C85.5964 11.3342 84.7211 11.8786 84.1084 12.6864H84.0559V11.5976H81.325V23.5566ZM86.0166 18.6571C84.7912 18.6571 84.0909 17.6561 84.0909 16.1986C84.0909 14.741 84.7211 13.6347 85.9641 13.6347C87.1895 13.6347 87.7672 14.6532 87.7672 16.1986C87.7672 17.7264 87.102 18.6571 86.0166 18.6571Z" fill="white"/>
<path d="M95.3013 20.8698C97.6471 20.8698 99.3802 19.8512 99.3802 17.8844C99.3802 15.5839 97.5245 15.18 95.949 14.9166C94.8111 14.7059 93.7958 14.6181 93.7958 13.9859C93.7958 13.4239 94.3385 13.1605 95.0387 13.1605C95.8265 13.1605 96.3691 13.4064 96.4742 14.2142H99.1001C98.96 12.4405 97.5946 11.3342 95.0562 11.3342C92.938 11.3342 91.1874 12.3176 91.1874 14.2142C91.1874 16.3215 92.8505 16.7429 94.4085 17.0064C95.5989 17.2171 96.6842 17.3049 96.6842 18.1127C96.6842 18.6922 96.1416 19.0083 95.2838 19.0083C94.3385 19.0083 93.7433 18.5693 93.6382 17.6737H90.9423C91.0299 19.6581 92.6754 20.8698 95.3013 20.8698Z" fill="white"/>
<path d="M103.256 20.8522C104.499 20.8522 105.287 20.3605 105.935 19.4824H105.987V20.5888H108.718V11.5975H105.865V16.62C105.865 17.6912 105.269 18.4288 104.289 18.4288C103.379 18.4288 102.941 17.8844 102.941 16.9009V11.5975H100.105V17.498C100.105 19.5 101.191 20.8522 103.256 20.8522Z" fill="white"/>
<path d="M109.959 20.5888H112.812V15.5488C112.812 14.4776 113.337 13.7225 114.23 13.7225C115.088 13.7225 115.491 14.2844 115.491 15.2503V20.5888H118.344V15.5488C118.344 14.4776 118.852 13.7225 119.762 13.7225C120.62 13.7225 121.023 14.2844 121.023 15.2503V20.5888H123.876V14.741C123.876 12.7215 122.861 11.3342 120.83 11.3342C119.675 11.3342 118.712 11.8259 118.012 12.9147H117.976C117.521 11.9488 116.629 11.3342 115.456 11.3342C114.16 11.3342 113.302 11.9488 112.742 12.8795H112.69V11.5976H109.959V20.5888Z" fill="white"/>
<path fill-rule="evenodd" clip-rule="evenodd" d="M15.0872 29.3693C23.1441 29.3693 29.6754 22.8174 29.6754 14.7351C29.6754 6.65295 23.1441 0.101013 15.0872 0.101013C7.03033 0.101013 0.498962 6.65295 0.498962 14.7351C0.498962 22.8174 7.03033 29.3693 15.0872 29.3693ZM19.6382 6.91821C19.8598 6.12885 19.0961 5.66208 18.3987 6.1605L8.66335 13.1178C7.90703 13.6583 8.02599 14.7351 8.84206 14.7351H11.4057V14.7152H16.402L12.3309 16.1562L10.5362 22.5521C10.3147 23.3415 11.0782 23.8082 11.7757 23.3098L21.5111 16.3526C22.2674 15.8121 22.1484 14.7351 21.3324 14.7351H17.4447L19.6382 6.91821Z" fill="white"/>
</g>
<defs>
<clipPath id="clip0_8_334">
<rect width="124" height="30" fill="white"/>
</clipPath>
</defs>
</svg>
